<?xml version="1.0" standalone="no"?><!DOCTYPE svg PUBLIC "-//W3C//DTD SVG 1.1//EN" "http://www.w3.org/Graphics/SVG/1.1/DTD/svg11.dtd"><svg class="icon" width="200px" height="200.00px" viewBox="0 0 1024 1024" version="1.1" xmlns="http://www.w3.org/2000/svg"><path fill="#f2077d" d="M512.10666667 69.96266667L103.91466667 374.22933333c-0.08533333 0.064-0.128 0.16-0.128 0.256l-1.06666667 552.27733334c0 15.76533333 7.44533333 28.55466667 23.22133333 28.55466666h245.952c16.02133333 0 29.00266667-12.992 29.00266667-29.00266666l1.06666667-185.92c0-69.48266667 41.856-119.008 109.29066666-119.008 69.13066667 0 111.59466667 49.51466667 111.59466667 119.296v186.13333333c0 15.744 18.09066667 28.50133333 33.83466667 28.50133333h242.05866666c15.72266667 0 22.06933333-12.74666667 22.06933334-28.46933333V374.48533333c0-0.10666667-0.05333333-0.20266667-0.128-0.256L512.49066667 69.96266667a0.35733333 0.35733333 0 0 0-0.384 0z" /></svg>